<?xml version="1.0" standalone="no"?>
<!DOCTYPE svg PUBLIC "-//W3C//DTD SVG 20010904//EN"
 "http://www.w3.org/TR/2001/REC-SVG-20010904/DTD/svg10.dtd">
<svg version="1.0" xmlns="http://www.w3.org/2000/svg"
 width="128.000000pt" height="128.000000pt" viewBox="0 0 128.000000 128.000000"
 preserveAspectRatio="xMidYMid meet">
<metadata>
Created by potrace 1.11, written by Peter Selinger 2001-2013
</metadata>
<g transform="translate(0.000000,128.000000) scale(0.100000,-0.100000)"
fill="#000000" stroke="none">
<path d="M301 1082 c-33 -34 -71 -81 -85 -105 -35 -60 -66 -152 -66 -199 0
-32 3 -38 23 -39 107 -4 186 -12 263 -24 40 -7 41 -6 47 23 3 16 27 50 52 76
l47 46 -88 130 c-48 72 -90 128 -92 125 -3 -3 -14 2 -23 11 -17 16 -22 13 -78
-44z m6 -137 c-4 -8 -11 -15 -17 -15 -7 0 -7 6 0 21 13 23 26 19 17 -6z m233
-85 c0 -5 -5 -10 -11 -10 -5 0 -7 5 -4 10 3 6 8 10 11 10 2 0 4 -4 4 -10z"/>
<path d="M922 1078 c-7 -7 -12 -18 -12 -25 0 -6 -6 -16 -13 -20 -15 -9 -60
-73 -106 -152 -28 -46 -30 -55 -19 -75 7 -13 23 -42 35 -64 13 -22 28 -44 35
-48 7 -4 69 -9 139 -11 101 -2 130 1 139 12 8 10 11 40 9 87 -5 93 -40 166
-118 248 -59 62 -69 68 -89 48z m88 -133 c7 -8 8 -15 2 -15 -5 0 -15 7 -22 15
-7 8 -8 15 -2 15 5 0 15 -7 22 -15z m24 -40 c3 -8 1 -15 -4 -15 -6 0 -10 7
-10 15 0 8 2 15 4 15 2 0 6 -7 10 -15z m-81 -90 c9 -25 14 -45 12 -45 -6 0
-35 69 -35 81 0 20 9 6 23 -36z"/>
<path d="M614 790 c-32 -13 -64 -59 -64 -94 0 -67 71 -128 137 -118 67 10 91
145 35 195 -21 19 -80 28 -108 17z"/>
<path d="M563 541 c-5 -3 -15 -31 -21 -61 -7 -30 -29 -92 -49 -139 -40 -93
-39 -97 18 -143 54 -44 152 -55 279 -33 3 0 16 7 30 15 14 9 34 20 45 26 11 6
21 18 23 27 2 9 -24 75 -57 147 -34 72 -61 135 -61 140 0 5 -30 9 -67 9 -38 0
-82 4 -99 9 -17 5 -36 7 -41 3z"/>
</g>
</svg>
